<?xml version="1.0" encoding="utf-8"?>
<!-- Generator: Adobe Illustrator 19.2.0, SVG Export Plug-In . SVG Version: 6.00 Build 0)  -->
<svg version="1.1" id="Capa_1" xmlns="http://www.w3.org/2000/svg" xmlns:xlink="http://www.w3.org/1999/xlink" x="0px" y="0px"
	 viewBox="0 0 45 45" style="enable-background:new 0 0 45 45;" xml:space="preserve">
<style type="text/css">
	.st0{fill:#FFFFFF;}
</style>
<g>
	<path class="st0" d="M71,2.5c-11,0-20,9-20,20c0,11,9,20,20,20s20-9,20-20C91,11.5,82,2.5,71,2.5z M60.4,35.6
		c0.7-3.7,3.3-6.7,6.7-8c1.2,0.6,2.5,0.9,4,0.9c1.4,0,2.8-0.3,4-0.9c3.4,1.3,6,4.4,6.7,8C78.7,38,75,39.4,71,39.4
		C67,39.4,63.3,38,60.4,35.6z M63.5,19.3c0-4.1,3.4-7.5,7.5-7.5c4.1,0,7.5,3.4,7.5,7.5c0,4.1-3.4,7.5-7.5,7.5
		C66.9,26.8,63.5,23.4,63.5,19.3z M83,34.3c-0.9-3.4-3.3-6.2-6.4-7.8c2.1-1.7,3.5-4.3,3.5-7.2c0-5.1-4.1-9.2-9.2-9.2
		c-5.1,0-9.2,4.1-9.2,9.2c0,2.9,1.4,5.5,3.5,7.2c-3.1,1.6-5.4,4.4-6.4,7.8c-3-3-4.8-7.2-4.8-11.8c0-9.3,7.6-16.9,16.9-16.9
		c9.3,0,16.9,7.6,16.9,16.9C87.9,27.1,86,31.3,83,34.3z"/>
</g>
<g>
	<g>
		<g>
			<path class="st0" d="M22.5,17.9c-1.7,0-3.3,0.5-4.7,1.3v-4.8c0-2.2,1.6-4,3.6-4h2.1c2,0,3.6,1.8,3.6,4c0,0.5,0.4,0.9,0.9,0.9
				c0.5,0,0.9-0.4,0.9-0.9c0-3.2-2.4-5.8-5.4-5.8h-2.1c-3,0-5.4,2.6-5.4,5.8v6.2c-1.8,1.8-3,4.3-3,7.1c0,5.4,4.2,9.7,9.4,9.7
				c5.2,0,9.4-4.4,9.4-9.7C31.9,22.3,27.7,17.9,22.5,17.9L22.5,17.9z M22.5,35.6c-4.2,0-7.6-3.6-7.6-7.9c0-4.4,3.4-7.9,7.6-7.9
				c4.2,0,7.6,3.6,7.6,7.9C30.1,32,26.7,35.6,22.5,35.6L22.5,35.6z M22.5,35.6"/>
			<path class="st0" d="M25.2,26.2c0-1.5-1.2-2.7-2.7-2.7c-1.5,0-2.7,1.2-2.7,2.7c0,0.7,0.3,1.4,0.8,1.9L20.1,31c0,0.1,0,0.1,0,0.2
				c0,0.8,0.8,1.4,1.8,1.4h1.4c1,0,1.8-0.6,1.8-1.4c0-0.1,0-0.1,0-0.2l-0.6-2.9C24.8,27.6,25.2,26.9,25.2,26.2L25.2,26.2z
				 M21.9,30.8l0.6-2.5l0.6,2.5H21.9z M22.9,27c-0.2,0.1-0.3,0.2-0.4,0.4c-0.1-0.2-0.2-0.3-0.4-0.4c-0.3-0.1-0.5-0.4-0.5-0.8
				c0-0.5,0.4-0.9,0.9-0.9c0.5,0,0.9,0.4,0.9,0.9C23.4,26.5,23.2,26.8,22.9,27L22.9,27z M22.9,27"/>
		</g>
	</g>
	<g>
		<g>
			<path class="st0" d="M22.5,42.5c-11,0-20-9-20-20c0-11,9-20,20-20s20,9,20,20C42.5,33.5,33.5,42.5,22.5,42.5z M22.5,5.6
				c-9.3,0-16.9,7.6-16.9,16.9c0,9.3,7.6,16.9,16.9,16.9s16.9-7.6,16.9-16.9C39.4,13.2,31.8,5.6,22.5,5.6z"/>
		</g>
	</g>
</g>
</svg>
