<?xml version="1.0" encoding="utf-8"?>
<!-- Generator: Adobe Illustrator 19.2.0, SVG Export Plug-In . SVG Version: 6.00 Build 0)  -->
<svg version="1.1" id="Capa_1" xmlns="http://www.w3.org/2000/svg" xmlns:xlink="http://www.w3.org/1999/xlink" x="0px" y="0px"
	 viewBox="0 0 45 45" style="enable-background:new 0 0 45 45;" xml:space="preserve">
<style type="text/css">
	.st0{fill:#FFFFFF;}
</style>
<g>
	<path class="st0" d="M22.5,2.5c-11,0-20,9-20,20c0,11,9,20,20,20s20-9,20-20C42.5,11.5,33.5,2.5,22.5,2.5z M11.9,35.6
		c0.7-3.7,3.3-6.7,6.7-8c1.2,0.6,2.5,0.9,4,0.9c1.4,0,2.8-0.3,4-0.9c3.4,1.3,6,4.4,6.7,8c-2.9,2.4-6.6,3.8-10.6,3.8
		C18.5,39.4,14.8,38,11.9,35.6z M15,19.3c0-4.1,3.4-7.5,7.5-7.5c4.1,0,7.5,3.4,7.5,7.5c0,4.1-3.4,7.5-7.5,7.5
		C18.4,26.8,15,23.4,15,19.3z M34.5,34.3c-0.9-3.4-3.3-6.2-6.4-7.8c2.1-1.7,3.5-4.3,3.5-7.2c0-5.1-4.1-9.2-9.2-9.2
		c-5.1,0-9.2,4.1-9.2,9.2c0,2.9,1.4,5.5,3.5,7.2c-3.1,1.6-5.4,4.4-6.4,7.8c-3-3-4.8-7.2-4.8-11.8c0-9.3,7.6-16.9,16.9-16.9
		s16.9,7.6,16.9,16.9C39.4,27.1,37.5,31.3,34.5,34.3z"/>
</g>
</svg>
